<?xml version="1.0" encoding="utf-8" standalone="yes"?>
<!DOCTYPE svg PUBLIC "-//W3C//DTD SVG 1.1//EN" "http://www.w3.org/Graphics/SVG/1.1/DTD/svg11.dtd">
<svg xmlns:svg="http://www.w3.org/2000/svg" xmlns="http://www.w3.org/2000/svg" xmlns:xlink="http://www.w3.org/1999/xlink" width="260" height="270" version="1.1">
  <defs>
    <linearGradient id="L0">
      <stop style="stop-color:#fe798e"/>
      <stop style="stop-color:#9c2219" offset="1"/>
    </linearGradient>
    <linearGradient id="L1">
      <stop style="stop-color:#bff872"/>
      <stop style="stop-color:#7de567" offset="1"/>
    </linearGradient>
    <linearGradient id="L2">
      <stop style="stop-color:#92cbe2"/>
      <stop style="stop-color:#7f95fe" offset="1"/>
    </linearGradient>
    <linearGradient xlink:href="#L2" id="L3" gradientUnits="userSpaceOnUse" gradientTransform="translate(92.2254,-.313709)" x1="-143" y1="207.36218" x2="-129.5" y2="108.86218"/>
    <linearGradient xlink:href="#L1" id="L4" gradientUnits="userSpaceOnUse" gradientTransform="translate(92.2254,-.313709)" x1="-133.5" y1="221.86218" x2="-50" y2="279.36218"/>
    <linearGradient xlink:href="#L0" id="L5" gradientUnits="userSpaceOnUse" gradientTransform="translate(92.2254,-.313709)" x1="-157.5" y1="222.86218" x2="-247.5" y2="276.86218"/>
  </defs>
  <g transform="translate(178.992551,-88.576718)">
    <path style="fill:url(#L3)" d="M-58.11348,213.41831L -162.26826,151.37974L -37.01785,100.04846L 68.1307,158.15264L -58.11348,213.41831z "/>
    <path style="fill:url(#L4)" d="M-51.56037,213.5916L 72.03976,159.30293L 54.30386,283.51375L -62.14067,350.24024L -51.56037,213.5916z "/>
    <path style="fill:url(#L5)" d="M-59.56037,347.18826L -164.06037,282.96566L -163.61166,159.3255L -55.18554,215.49255L -59.56037,347.18826z "/>
    <path style="fill:#000" d="M-66.27108,352.00632C -69.30467,350.22909 -85.32501,339.74485 -101.87184,328.708C -141.06516,302.56578 -152.91684,294.99749 -161.22644,290.80508C -172.47362,285.13057 -171.42166,291.71277 -171.76785,224.84661C -172.09132,162.36876 -172.8819,151.51349 -166.98072,153.09872C -171.59657,148.70486 -149.89048,141.93362 -115.91158,126.8062C -82.71848,112.02862 -46.04303,97.12968 -37.99045,95.151731C -35.80415,94.614711 -30.58575,96.813551 -10.91381,106.56083C 32.31874,127.98218 67.99593,147.7319 72.54924,152.76325C 73.58759,153.91062 75.03553,154.84937 75.76688,154.84937C 77.84679,154.84937 78.37332,158.95768 77.25844,166.48751C 76.69538,170.29042 72.64193,195.0632 68.25078,221.53813C 63.85962,248.01307 59.96508,272.38204 59.59625,275.69141C 58.29011,287.41076 58.65986,286.97385 40.74281,297.9691C 31.80145,303.4562 9.14236,316.66419 -9.61071,327.3202C -28.36378,337.97622 -47.03613,348.65729 -51.10479,351.05592C -55.17346,353.45455 -59.00931,355.3767 -59.62892,355.32736C -60.24852,355.27802 -63.23749,353.78356 -66.27108,352.00632z M-61.87106,326.08404C -61.53987,317.12117 -60.90739,291.51119 -60.46556,269.17296C -59.4846,219.57813 -59.22374,221.12454 -69.76193,214.06246C -82.68227,205.404 -96.65592,197.35576 -120.42436,184.88302C -133.38604,178.08124 -147.58846,170.35597 -151.98528,167.71576C -157.4594,164.42865 -160.30462,163.24026 -161.01083,163.94598C -162.29568,165.22992 -162.39159,217.12625 -161.17615,253.40053L -160.31016,279.24588L -153.15345,283.38712C -146.97571,286.96188 -111.07469,311.08894 -76.29946,335.03636C -70.50807,339.02452 -65.02796,342.30839 -64.12144,342.33386C -62.68203,342.3743 -62.39695,340.31581 -61.87106,326.08404z M-123.45447,281.63953L -121.92862,231.56652L -140.98255,221.52843L -138.49408,200.85313L -78.16426,229.52961L -79.29283,248.93423L -101.23414,239.89866C -104.02169,251.08704 -104.55187,273.56224 -106.14867,290.70437L -123.45447,281.63953z M-9.61071,316.77116C 34.17351,291.73098 48.95974,282.50651 49.5137,279.88608C 49.76822,278.68213 50.70639,272.73304 51.59851,266.66586C 52.49065,260.59869 56.34489,236.69937 60.1635,213.55627C 66.55191,174.8386 67.87919,164.87776 66.64985,164.87776C 65.35309,164.87776 41.87183,175.43096 11.95031,189.46143C -6.52698,198.1256 -27.06009,207.7061 -33.67883,210.75142C -40.29756,213.79674 -46.27431,216.80609 -46.96048,217.43886C -49.01471,219.33318 -53.67591,334.1607 -51.88774,338.82058C -51.3077,340.33214 -50.58188,340.15475 -45.46483,337.25078C -42.2919,335.45011 -26.15754,326.23429 -9.61071,316.77116z M-31.52427,299.57413C -31.87775,272.99487 -33.95338,246.76003 -28.00983,218.92136L -15.53109,218.69485L -14.46997,256.84948L 28.82336,204.1205L 49.21858,198.81459L 11.17117,250.94644L 46.4177,267.81063L 31.8401,277.19567L -4.08659,261.22054L -17.12774,267.67154L -17.55651,293.33323L -31.52427,299.57413z M-44.98935,205.62376C -42.07793,204.31693 -20.74221,194.22819 2.42335,183.20435C 25.58892,172.18051 47.47586,161.89162 51.06101,160.34015C 60.54302,156.23684 60.93348,155.67356 56.37503,152.674C 49.35425,148.05414 13.69688,129.08139 -11.32169,116.65357L -36.09795,104.34612L -44.41536,107.15536C -56.14763,111.11798 -89.54973,125.04344 -118.35237,137.97996C -148.44864,151.49752 -152.51519,153.54112 -152.51519,155.14816C -152.51519,155.84547 -145.85885,160.0994 -137.72332,164.60135C -111.60287,179.05557 -54.81147,207.96913 -52.51064,207.98472C -51.28536,207.99302 -47.90078,206.93059 -44.98935,205.62376z M-60.75547,189.54567C -75.28072,185.96717 -91.81229,177.57594 -96.0911,171.6097C -99.47879,166.88602 -102.37326,159.22994 -102.37326,154.99297C -102.37326,149.88393 -99.16092,142.63741 -94.96571,138.28271C -89.64934,132.76424 -82.2461,130.42562 -63.03287,128.19542C -43.93665,125.97879 -27.42575,126.6637 -17.57474,130.08117C -8.29082,133.30188 -4.52834,135.30727 -2.61559,138.05436C 2.38083,145.2301 5.93328,151.2196 5.93328,152.46787C 5.93328,154.32106 1.29355,156.06801 -2.01293,155.45979C -3.4339,155.1984 -6.26937,154.71168 -8.31397,154.3782C -11.32445,153.88717 -12.45855,153.01191 -14.27723,149.776C -16.85292,145.19318 -23.60657,140.51818 -30.15247,138.78687C -40.15132,136.14228 -67.5992,138.35316 -76.05306,142.48406C -80.82949,144.81802 -83.39709,149.93235 -84.08312,158.47883C -84.55072,164.304 -84.36299,165.20843 -82.20604,167.52215C -79.28527,170.65521 -71.09215,174.87312 -62.00697,177.92089C -56.94497,179.61901 -54.0594,180.03115 -50.5755,179.55363C -42.46315,178.44171 -41.49161,176.3237 -46.32188,170.28055C -50.48755,165.06888 -51.4992,162.24318 -50.12122,159.66839C -49.15472,157.86249 -48.34815,157.66756 -43.78911,158.13809C -37.32875,158.80486 -23.72903,163.98325 -20.5194,166.99854C -17.69425,169.65263 -17.2471,175.88082 -19.70523,178.33895C -22.5073,181.14102 -34.94771,188.0685 -39.80016,189.52887C -45.45811,191.23166 -53.88454,191.23841 -60.75547,189.54567z"/>
  </g>
</svg>
