<?xml version="1.0" encoding="UTF-8" standalone="no"?>
<!-- Uploaded to SVGRepo https://www.svgrepo.com -->

<svg
   version="1.1"
   id="Layer_1"
   x="0px"
   y="0px"
   viewBox="0 0 64 64"
   enable-background="new 0 0 64 64"
   xml:space="preserve"
   sodipodi:docname="seed.svg"
   inkscape:version="1.2 (dc2aedaf03, 2022-05-15)"
   xmlns:inkscape="http://www.inkscape.org/namespaces/inkscape"
   xmlns:sodipodi="http://sodipodi.sourceforge.net/DTD/sodipodi-0.dtd"
   xmlns="http://www.w3.org/2000/svg"
   xmlns:svg="http://www.w3.org/2000/svg"><defs
   id="defs43" /><sodipodi:namedview
   id="namedview41"
   pagecolor="#ffffff"
   bordercolor="#000000"
   borderopacity="0.25"
   inkscape:showpageshadow="2"
   inkscape:pageopacity="0.0"
   inkscape:pagecheckerboard="0"
   inkscape:deskcolor="#d1d1d1"
   showgrid="false"
   inkscape:zoom="3.5626328"
   inkscape:cx="158.87127"
   inkscape:cy="39.296781"
   inkscape:window-width="1920"
   inkscape:window-height="1011"
   inkscape:window-x="0"
   inkscape:window-y="32"
   inkscape:window-maximized="1"
   inkscape:current-layer="Layer_1" />
<g
   id="g1026"
   inkscape:label="g1"
   transform="matrix(0.13585596,0,0,0.13585596,15.289206,-0.00174476)"><path
     fill="#eea700"
     d="m 106,228.8 c -22.8,12.9 -44.8,35 -62.2,77 C 2.1,406.7 64.5,468.9 128,471.1 l -0.4,-0.1 0.4,-2 c 3.2,-16 13.7,-72.6 14.1,-130.5 0.4,-53.4 -8,-85.5 -24.2,-100.6 -3.5,-3.3 -7.5,-6.3 -11.9,-9.1 z"
     id="path213"
     inkscape:label="path2" /><path
     fill="#929000"
     d="m 168.1,279.8 c 63.1,-56 -7,-95.6 -69.5,-127.9 C 12.9,107.7 14,38.8 86.2,26.4 c 53.4,-9.2 25.3,35.7 42.3,71 8,16.5 76,7.5 73,-2.6 -2.5,-8.3 -32.6,-6.5 -42.3,-18.6 -6.5,-8 -1.6,-25.4 -4.9,-37.6 C 138.2,-20.2 35.8,-7 9.8,45.9 -21.4,109.3 27.4,146 78.2,174.8 c 53,30.1 78.5,52.7 89.9,105 z"
     id="path216"
     inkscape:label="path3" /><path
     fill="#eea700"
     d="m 214.7,244.1 c 5.1,6.5 -13,51.7 -41.7,67.2 -0.8,66.9 -18.7,137.3 -25.3,159.4 43.1,-3.3 88.5,-35.4 96.7,-106.7 6.3,-55.1 -6.3,-94.7 -29.7,-119.9 z"
     id="path210"
     inkscape:label="path1" /></g>















</svg>
